<?xml version="1.0" encoding="UTF-8" ?>
<!DOCTYPE svg PUBLIC "-//W3C//DTD SVG 1.1//EN" "http://www.w3.org/Graphics/SVG/1.1/DTD/svg11.dtd">
<svg width="955pt" height="955pt" viewBox="0 0 955 955" version="1.1" xmlns="http://www.w3.org/2000/svg">
<g id="#9d5c0dff">
<path fill="#9d5c0d" opacity="1.00" d=" M 420.01 3.93 C 472.60 -2.43 526.23 -0.02 578.03 11.06 C 650.15 26.33 718.49 58.89 775.93 105.09 C 833.35 151.03 880.03 210.33 910.92 277.08 C 938.45 336.33 953.24 401.29 955.00 466.57 L 955.00 487.58 C 953.76 541.46 943.64 595.15 924.59 645.60 C 896.91 719.72 850.21 786.56 790.39 838.32 C 726.43 893.96 647.40 932.18 563.94 947.21 C 538.10 951.98 511.88 954.31 485.63 955.00 L 469.53 955.00 C 440.82 954.27 412.13 951.44 383.96 945.77 C 316.48 932.44 252.10 904.01 196.58 863.44 C 138.02 820.78 89.39 764.60 55.55 700.54 C 16.93 627.94 -1.86 545.11 0.71 462.97 C 2.82 389.57 22.23 316.72 57.07 252.07 C 94.60 182.09 149.92 121.77 216.38 78.33 C 277.30 38.24 347.61 12.59 420.01 3.93 M 449.15 37.35 C 424.35 38.80 399.64 42.13 375.38 47.51 C 320.25 61.52 267.69 85.58 221.12 118.25 C 198.14 134.85 176.87 153.76 157.31 174.26 C 135.79 196.87 116.35 221.55 100.44 248.44 C 79.27 283.69 62.74 321.69 51.34 361.19 C 46.40 377.40 43.58 394.14 41.13 410.87 C 33.25 467.13 35.42 524.79 47.58 580.28 C 55.94 613.54 68.15 645.81 83.57 676.43 C 98.37 705.45 115.72 733.32 136.83 758.20 C 161.00 787.28 188.74 813.38 219.17 835.82 C 263.03 866.92 312.28 890.38 364.04 904.93 C 377.63 908.93 391.62 911.36 405.60 913.54 C 463.04 922.22 522.07 920.48 578.87 908.21 C 617.29 898.74 654.35 883.99 689.15 865.21 C 710.06 853.69 730.42 841.01 749.05 826.04 C 772.20 807.76 793.57 787.22 812.91 764.95 C 845.37 728.14 870.05 684.98 888.48 639.63 C 899.05 612.71 908.16 585.02 912.55 556.36 C 922.44 496.34 921.01 434.42 907.82 375.01 C 899.29 341.37 886.93 308.70 871.27 277.73 C 856.87 249.87 840.27 223.00 820.06 198.95 C 797.92 172.19 772.87 147.85 745.42 126.57 C 731.84 115.86 717.24 106.53 702.38 97.72 C 668.98 78.12 633.15 62.67 595.96 51.84 C 579.70 46.82 562.89 43.88 546.09 41.37 C 514.02 36.77 481.48 35.37 449.15 37.35 Z" />
<path fill="#9d5c0d" opacity="1.00" d=" M 367.01 195.30 C 374.25 193.84 381.51 190.94 389.01 192.28 C 396.77 193.71 404.36 195.94 412.07 197.63 C 419.32 198.69 426.87 198.87 433.96 196.72 C 446.93 192.80 460.08 198.23 473.06 199.29 C 483.92 200.96 494.52 204.03 505.20 206.57 C 509.99 207.45 513.82 210.85 518.66 211.57 C 525.16 212.75 531.44 215.02 538.00 215.85 C 547.80 216.46 557.24 219.32 566.78 221.39 C 574.54 222.96 581.25 227.37 588.28 230.77 C 597.85 235.60 607.32 241.25 618.02 243.15 C 625.05 244.86 631.92 247.77 637.54 252.41 C 639.47 253.81 641.38 255.78 644.00 255.49 C 648.05 255.55 652.09 256.12 656.00 257.20 C 661.27 258.66 667.04 259.07 671.60 262.37 C 675.97 265.53 681.12 267.32 685.64 270.26 C 692.54 274.62 700.43 276.98 707.99 279.92 C 716.40 283.29 722.64 290.11 730.01 295.13 C 734.86 298.33 736.72 304.30 741.34 307.73 C 745.75 311.13 748.39 316.13 751.32 320.74 C 753.60 324.46 756.66 327.69 758.42 331.73 C 760.30 335.99 763.49 339.55 765.03 343.98 C 769.43 355.67 773.51 367.57 775.50 379.93 C 775.53 388.60 776.27 397.36 775.17 406.00 C 772.75 416.33 770.85 426.88 766.84 436.75 C 765.06 441.43 760.70 444.70 759.56 449.66 C 756.54 461.89 751.36 473.48 748.63 485.80 C 746.98 491.77 746.07 498.22 742.32 503.35 C 739.69 507.34 735.78 510.84 735.20 515.83 C 732.84 529.64 728.25 542.89 724.51 556.35 C 722.95 563.94 720.53 571.36 719.50 579.05 C 720.16 586.18 723.02 592.92 723.98 600.02 C 724.20 603.18 723.05 606.22 722.42 609.27 C 721.48 612.85 721.12 616.77 718.83 619.83 C 716.32 623.26 714.08 627.01 710.71 629.69 C 709.30 630.93 707.55 631.95 706.79 633.75 C 702.64 643.61 699.48 653.85 695.99 663.95 C 691.41 673.71 694.44 684.83 691.76 695.03 C 689.82 701.73 691.16 708.82 689.50 715.57 C 687.99 722.05 686.44 728.53 684.82 734.99 C 682.85 745.31 675.12 753.80 665.98 758.54 C 659.14 760.66 652.06 761.93 645.06 763.35 C 642.05 764.33 639.81 766.79 636.88 767.97 C 629.66 771.11 621.86 772.47 614.27 774.41 C 607.14 776.13 600.49 771.49 593.43 771.54 C 587.53 772.51 581.86 774.55 575.96 775.49 C 570.16 776.42 564.63 773.94 559.05 772.84 C 553.26 771.28 546.95 770.73 541.95 767.15 C 533.67 761.51 525.87 755.22 518.06 748.97 C 515.34 746.43 511.32 747.67 507.99 747.36 C 501.96 746.92 495.87 748.98 489.94 747.36 C 486.08 746.34 482.15 745.60 478.32 744.49 C 474.70 743.45 471.68 741.01 468.06 740.00 C 463.00 740.08 458.12 741.75 453.06 741.88 C 449.30 742.11 445.67 741.01 442.07 740.16 C 436.14 738.73 430.18 737.41 424.37 735.53 C 419.68 734.07 416.50 730.03 412.17 727.92 C 396.98 721.04 379.42 720.75 364.97 712.04 C 351.49 704.31 338.07 696.45 324.98 688.07 C 321.80 686.03 318.81 683.48 315.03 682.62 C 309.32 681.12 303.50 680.06 297.91 678.18 C 294.01 676.52 290.00 678.73 286.03 678.83 C 280.37 679.06 274.69 680.01 269.02 679.46 C 258.44 677.64 248.22 674.29 238.00 671.13 C 234.67 669.38 231.67 666.99 228.00 665.93 C 221.42 663.96 215.57 659.96 210.79 655.10 C 204.83 647.31 199.65 638.95 193.82 631.06 C 190.26 626.43 189.83 620.43 188.35 614.99 C 186.47 608.16 186.36 600.97 187.29 593.98 C 187.74 590.67 188.65 587.40 188.64 584.04 C 188.65 580.11 188.33 576.12 189.42 572.28 C 190.80 567.15 191.30 561.63 194.31 557.09 C 193.22 551.42 191.04 545.85 191.58 539.98 C 192.43 527.69 191.04 515.38 191.71 503.09 C 192.23 495.72 188.94 488.33 191.26 481.07 C 192.76 475.84 193.03 469.99 196.66 465.64 C 201.95 456.96 211.16 452.08 218.67 445.60 C 220.02 444.38 220.08 442.38 220.63 440.75 C 222.35 433.81 224.34 426.95 226.17 420.05 C 228.26 412.03 233.46 405.24 235.33 397.15 C 236.31 392.25 239.21 388.05 240.44 383.23 C 241.56 379.35 244.14 376.12 245.36 372.29 C 248.56 362.52 250.71 352.17 256.58 343.55 C 262.45 334.52 266.81 324.65 272.54 315.54 C 278.95 304.28 284.21 292.43 289.54 280.64 C 293.21 272.70 293.75 263.80 296.66 255.63 C 300.03 249.31 304.75 243.83 309.68 238.69 C 311.77 233.70 313.72 228.57 317.31 224.39 C 320.31 219.12 325.80 216.20 329.57 211.59 C 333.88 207.71 338.73 204.12 344.37 202.46 C 351.93 200.10 359.24 196.92 367.01 195.30 M 372.19 230.55 C 366.66 232.71 360.90 234.27 355.47 236.63 C 353.24 238.71 351.58 241.40 348.94 243.04 C 343.88 245.85 343.41 252.19 341.40 257.04 C 339.54 263.78 331.25 265.45 328.74 271.78 C 327.28 275.73 326.95 279.96 325.96 284.03 C 323.59 294.32 318.43 303.62 314.17 313.20 C 310.05 322.43 304.99 331.21 299.84 339.89 C 295.44 349.45 289.25 358.02 284.47 367.37 C 279.41 380.39 276.38 394.14 270.90 407.03 C 267.35 415.06 263.81 423.11 260.09 431.06 C 256.55 441.57 253.94 452.38 251.25 463.13 C 250.62 466.12 248.01 467.93 245.82 469.76 C 239.31 474.96 232.61 479.94 226.17 485.24 C 226.73 490.72 227.05 496.25 228.29 501.64 C 226.37 512.60 228.46 523.77 227.79 534.82 C 227.25 538.89 227.08 543.09 228.26 547.07 C 229.31 551.12 231.95 554.69 232.23 558.95 C 232.64 563.98 230.55 568.70 229.16 573.43 C 227.51 574.37 225.95 575.46 224.40 576.55 C 225.01 581.71 224.82 586.95 223.68 592.03 C 223.00 598.30 223.73 604.65 223.80 610.94 C 225.69 614.96 228.72 618.30 231.19 621.97 C 233.37 624.81 235.01 628.05 237.36 630.76 C 239.87 632.44 242.92 633.12 245.70 634.26 L 245.71 634.60 C 247.35 635.07 249.00 635.57 250.66 635.98 C 252.33 637.87 254.58 638.97 257.04 639.44 C 262.95 640.63 268.47 644.60 274.71 643.32 C 280.93 643.25 287.30 643.32 293.27 641.35 C 295.38 640.71 297.75 639.92 299.83 641.14 C 303.42 642.90 307.31 643.78 311.14 644.82 C 318.04 647.50 325.52 648.17 332.52 650.55 C 337.51 652.98 341.87 656.50 346.62 659.37 C 354.27 664.07 361.95 668.75 369.71 673.28 C 378.24 677.95 386.30 683.81 395.90 686.14 C 408.64 688.70 420.88 693.11 433.32 696.73 C 435.70 698.71 436.74 702.32 439.99 703.17 C 443.56 704.31 447.17 705.53 450.93 705.88 C 458.91 706.17 466.61 702.90 474.60 703.51 C 480.76 704.95 485.95 708.82 491.69 711.33 C 494.93 712.82 498.51 711.41 501.91 711.42 C 507.79 710.85 513.85 712.33 519.60 710.56 C 523.93 712.95 528.78 714.03 533.36 715.80 C 542.46 722.29 550.84 729.78 560.02 736.16 C 565.72 738.93 572.53 740.88 578.77 738.75 C 585.78 736.62 592.92 734.90 600.14 733.71 C 604.66 733.02 607.14 737.80 610.98 738.98 C 614.42 738.41 617.57 736.84 620.96 736.05 C 622.60 735.16 624.08 733.95 624.88 732.23 C 627.99 731.35 631.00 730.18 633.97 728.93 C 639.18 726.62 645.03 727.36 650.55 726.54 C 651.46 722.88 652.55 719.27 653.44 715.61 C 654.83 709.80 654.37 703.78 654.80 697.86 C 657.09 693.27 657.34 688.06 657.29 683.03 C 657.17 675.96 658.03 668.92 658.71 661.90 C 659.01 658.83 659.41 655.67 661.27 653.11 C 664.55 648.41 665.65 642.71 667.55 637.41 C 668.55 634.18 670.01 631.07 670.59 627.74 C 672.97 622.26 674.86 616.59 677.06 611.04 C 678.52 605.62 686.12 606.21 688.26 601.15 C 687.49 595.87 684.34 591.29 683.48 586.03 C 682.79 579.86 683.97 573.66 685.63 567.74 C 688.31 558.60 689.56 549.11 692.31 539.98 C 694.86 530.28 698.66 520.88 700.13 510.91 C 701.52 504.67 702.21 498.24 704.49 492.24 L 704.39 492.67 C 707.92 489.40 711.80 486.01 713.17 481.21 C 715.68 473.21 717.13 464.91 719.87 456.98 C 722.01 451.00 723.81 444.91 725.85 438.90 C 727.22 434.96 727.02 430.25 730.10 427.08 C 732.05 424.97 733.89 422.68 734.85 419.92 C 737.34 413.23 739.87 406.31 739.66 399.06 C 739.64 393.01 739.60 386.97 739.48 380.93 C 738.97 376.85 737.25 373.02 735.63 369.28 C 734.92 369.26 733.50 369.22 732.79 369.20 C 731.36 364.69 730.46 359.95 728.18 355.76 C 725.26 350.22 720.89 345.65 717.64 340.32 C 714.35 335.22 711.57 329.82 708.49 324.60 C 706.96 321.67 703.73 320.54 701.07 318.95 C 698.49 317.62 697.40 314.54 694.72 313.38 C 689.82 311.08 684.55 309.70 679.60 307.52 C 676.85 306.40 674.24 304.90 671.36 304.11 C 665.94 299.12 658.47 297.53 652.39 293.57 C 650.73 292.55 648.99 291.37 646.95 291.51 C 640.29 291.59 633.36 292.67 626.96 290.25 C 621.71 288.02 619.23 282.16 614.09 279.79 C 610.86 278.27 607.58 276.71 604.05 276.05 C 593.20 274.45 583.69 268.64 573.98 263.95 C 565.55 259.95 557.59 254.36 548.13 253.17 C 540.53 251.27 532.66 252.27 524.96 251.45 C 521.45 251.19 519.51 247.48 516.06 247.07 C 508.38 245.92 501.06 243.30 493.54 241.45 C 493.64 241.11 493.84 240.41 493.94 240.07 C 487.01 238.42 480.21 236.14 473.11 235.29 C 467.23 234.54 461.28 234.11 455.52 232.62 C 448.71 231.45 441.48 230.29 434.78 232.68 C 427.39 235.29 419.51 233.99 411.86 234.17 C 406.17 231.82 399.99 230.96 394.04 229.46 C 386.97 226.85 379.02 227.58 372.19 230.55 Z" />
<path fill="#9d5c0d" opacity="1.00" d=" M 331.93 529.82 C 333.93 525.81 337.04 522.55 340.48 519.74 C 338.60 525.32 337.15 531.09 334.56 536.41 C 331.93 541.80 326.50 544.84 322.05 548.54 C 324.47 541.86 328.54 536.01 331.93 529.82 Z" />
</g>
<g id="#e5890aff">
<path fill="#e5890a" opacity="1.00" d=" M 449.15 37.35 C 481.48 35.37 514.02 36.77 546.09 41.37 C 562.89 43.88 579.70 46.82 595.96 51.84 C 633.15 62.67 668.98 78.12 702.38 97.72 C 717.24 106.53 731.84 115.86 745.42 126.57 C 772.87 147.85 797.92 172.19 820.06 198.95 C 840.27 223.00 856.87 249.87 871.27 277.73 C 886.93 308.70 899.29 341.37 907.82 375.01 C 921.01 434.42 922.44 496.34 912.55 556.36 C 908.16 585.02 899.05 612.71 888.48 639.63 C 870.05 684.98 845.37 728.14 812.91 764.95 C 793.57 787.22 772.20 807.76 749.05 826.04 C 730.42 841.01 710.06 853.69 689.15 865.21 C 654.35 883.99 617.29 898.74 578.87 908.21 C 522.07 920.48 463.04 922.22 405.60 913.54 C 391.62 911.36 377.63 908.93 364.04 904.93 C 312.28 890.38 263.03 866.92 219.17 835.82 C 188.74 813.38 161.00 787.28 136.83 758.20 C 115.72 733.32 98.37 705.45 83.57 676.43 C 68.15 645.81 55.94 613.54 47.58 580.28 C 35.42 524.79 33.25 467.13 41.13 410.87 C 43.58 394.14 46.40 377.40 51.34 361.19 C 62.74 321.69 79.27 283.69 100.44 248.44 C 116.35 221.55 135.79 196.87 157.31 174.26 C 176.87 153.76 198.14 134.85 221.12 118.25 C 267.69 85.58 320.25 61.52 375.38 47.51 C 399.64 42.13 424.35 38.80 449.15 37.35 M 367.01 195.30 C 359.24 196.92 351.93 200.10 344.37 202.46 C 338.73 204.12 333.88 207.71 329.57 211.59 C 325.80 216.20 320.31 219.12 317.31 224.39 C 313.72 228.57 311.77 233.70 309.68 238.69 C 304.75 243.83 300.03 249.31 296.66 255.63 C 293.75 263.80 293.21 272.70 289.54 280.64 C 284.21 292.43 278.95 304.28 272.54 315.54 C 266.81 324.65 262.45 334.52 256.58 343.55 C 250.71 352.17 248.56 362.52 245.36 372.29 C 244.14 376.12 241.56 379.35 240.44 383.23 C 239.21 388.05 236.31 392.25 235.33 397.15 C 233.46 405.24 228.26 412.03 226.17 420.05 C 224.34 426.95 222.35 433.81 220.63 440.75 C 220.08 442.38 220.02 444.38 218.67 445.60 C 211.16 452.08 201.95 456.96 196.66 465.64 C 193.03 469.99 192.76 475.84 191.26 481.07 C 188.94 488.33 192.23 495.72 191.71 503.09 C 191.04 515.38 192.43 527.69 191.58 539.98 C 191.04 545.85 193.22 551.42 194.31 557.09 C 191.30 561.63 190.80 567.15 189.42 572.28 C 188.33 576.12 188.65 580.11 188.64 584.04 C 188.65 587.40 187.74 590.67 187.29 593.98 C 186.36 600.97 186.47 608.16 188.35 614.99 C 189.83 620.43 190.26 626.43 193.82 631.06 C 199.65 638.95 204.83 647.31 210.79 655.10 C 215.57 659.96 221.42 663.96 228.00 665.93 C 231.67 666.99 234.67 669.38 238.00 671.13 C 248.22 674.29 258.44 677.64 269.02 679.46 C 274.69 680.01 280.37 679.06 286.03 678.83 C 290.00 678.73 294.01 676.52 297.91 678.18 C 303.50 680.06 309.32 681.12 315.03 682.62 C 318.81 683.48 321.80 686.03 324.98 688.07 C 338.07 696.45 351.49 704.31 364.97 712.04 C 379.42 720.75 396.98 721.04 412.17 727.92 C 416.50 730.03 419.68 734.07 424.37 735.53 C 430.18 737.41 436.14 738.73 442.07 740.16 C 445.67 741.01 449.30 742.11 453.06 741.88 C 458.12 741.75 463.00 740.08 468.06 740.00 C 471.68 741.01 474.70 743.45 478.32 744.49 C 482.15 745.60 486.08 746.34 489.94 747.36 C 495.87 748.98 501.96 746.92 507.99 747.36 C 511.32 747.67 515.34 746.43 518.06 748.97 C 525.87 755.22 533.67 761.51 541.95 767.15 C 546.95 770.73 553.26 771.28 559.05 772.84 C 564.63 773.94 570.16 776.42 575.96 775.49 C 581.86 774.55 587.53 772.51 593.43 771.54 C 600.49 771.49 607.14 776.13 614.27 774.41 C 621.86 772.47 629.66 771.11 636.88 767.97 C 639.81 766.79 642.05 764.33 645.06 763.35 C 652.06 761.93 659.14 760.66 665.98 758.54 C 675.12 753.80 682.85 745.31 684.82 734.99 C 686.44 728.53 687.99 722.05 689.50 715.57 C 691.16 708.82 689.82 701.73 691.76 695.03 C 694.44 684.83 691.41 673.71 695.99 663.95 C 699.48 653.85 702.64 643.61 706.79 633.75 C 707.55 631.95 709.30 630.93 710.71 629.69 C 714.08 627.01 716.32 623.26 718.83 619.83 C 721.12 616.77 721.48 612.85 722.42 609.27 C 723.05 606.22 724.20 603.18 723.98 600.02 C 723.02 592.92 720.16 586.18 719.50 579.05 C 720.53 571.36 722.95 563.94 724.51 556.35 C 728.25 542.89 732.84 529.64 735.20 515.83 C 735.78 510.84 739.69 507.34 742.32 503.35 C 746.07 498.22 746.98 491.77 748.63 485.80 C 751.36 473.48 756.54 461.89 759.56 449.66 C 760.70 444.70 765.06 441.43 766.84 436.75 C 770.85 426.88 772.75 416.33 775.17 406.00 C 776.27 397.36 775.53 388.60 775.50 379.93 C 773.51 367.57 769.43 355.67 765.03 343.98 C 763.49 339.55 760.30 335.99 758.42 331.73 C 756.66 327.69 753.60 324.46 751.32 320.74 C 748.39 316.13 745.75 311.13 741.34 307.73 C 736.72 304.30 734.86 298.33 730.01 295.13 C 722.64 290.11 716.40 283.29 707.99 279.92 C 700.43 276.98 692.54 274.62 685.64 270.26 C 681.12 267.32 675.97 265.53 671.60 262.37 C 667.04 259.07 661.27 258.66 656.00 257.20 C 652.09 256.12 648.05 255.55 644.00 255.49 C 641.38 255.78 639.47 253.81 637.54 252.41 C 631.92 247.77 625.05 244.86 618.02 243.15 C 607.32 241.25 597.85 235.60 588.28 230.77 C 581.25 227.37 574.54 222.96 566.78 221.39 C 557.24 219.32 547.80 216.46 538.00 215.85 C 531.44 215.02 525.16 212.75 518.66 211.57 C 513.82 210.85 509.99 207.45 505.20 206.57 C 494.52 204.03 483.92 200.96 473.06 199.29 C 460.08 198.23 446.93 192.80 433.96 196.72 C 426.87 198.87 419.32 198.69 412.07 197.63 C 404.36 195.94 396.77 193.71 389.01 192.28 C 381.51 190.94 374.25 193.84 367.01 195.30 Z" />
<path fill="#e5890a" opacity="1.00" d=" M 600.30 501.20 C 605.17 495.28 608.75 488.32 614.50 483.14 C 616.57 497.15 615.46 511.34 615.67 525.44 C 608.49 528.80 601.57 532.70 594.24 535.74 C 593.89 526.79 595.06 517.91 596.09 509.04 C 596.37 505.95 598.48 503.54 600.30 501.20 Z" />
<path fill="#e5890a" opacity="1.00" d=" M 500.38 510.94 C 506.03 516.05 509.08 523.33 512.13 530.15 C 507.70 526.53 503.93 522.19 500.25 517.84 C 498.17 515.90 499.82 513.15 500.38 510.94 Z" />
<path fill="#e5890a" opacity="1.00" d=" M 476.47 517.98 C 481.03 523.56 484.71 529.95 487.08 536.77 C 481.62 538.88 475.92 540.27 470.24 541.66 C 472.33 533.75 477.02 526.42 476.47 517.98 Z" />
<path fill="#e5890a" opacity="1.00" d=" M 582.17 568.98 C 585.03 564.87 587.92 560.76 591.39 557.14 C 592.80 564.43 590.59 571.71 590.35 579.00 C 589.79 582.25 590.68 586.45 587.60 588.64 C 583.15 592.32 579.17 596.68 573.94 599.30 C 574.31 593.30 576.29 587.60 577.61 581.79 C 578.68 577.38 579.47 572.74 582.17 568.98 Z" />
<path fill="#e5890a" opacity="1.00" d=" M 605.96 571.29 C 608.96 572.33 611.91 573.58 614.62 575.27 C 618.83 577.94 623.55 579.97 627.01 583.69 C 621.49 582.53 615.95 581.25 610.71 579.14 C 607.55 577.89 607.15 574.04 605.96 571.29 Z" />
<path fill="#e5890a" opacity="1.00" d=" M 596.83 587.84 C 597.99 584.61 599.26 581.36 601.49 578.70 C 601.78 588.80 601.54 598.91 601.61 609.02 C 598.22 607.30 595.10 605.12 592.21 602.66 C 592.15 597.31 595.07 592.71 596.83 587.84 Z" />
<path fill="#e5890a" opacity="1.00" d=" M 619.35 610.91 C 619.80 607.16 622.43 604.14 625.33 601.93 C 627.52 607.06 629.33 612.34 631.49 617.48 C 634.06 623.38 631.87 630.04 629.35 635.57 C 629.18 635.58 628.83 635.61 628.66 635.63 C 625.90 631.00 624.47 625.74 622.31 620.84 C 621.08 617.62 619.14 614.46 619.35 610.91 Z" />
</g>
<g id="#dda257ff">
<path fill="#dda257" opacity="1.00" d=" M 372.19 230.55 C 379.02 227.58 386.97 226.85 394.04 229.46 C 392.41 229.47 390.79 229.55 389.17 229.63 C 387.91 232.15 386.61 234.65 385.32 237.15 C 381.10 234.69 377.43 230.43 372.19 230.55 Z" />
<path fill="#dda257" opacity="1.00" d=" M 434.78 232.68 C 441.48 230.29 448.71 231.45 455.52 232.62 C 461.28 234.11 467.23 234.54 473.11 235.29 C 480.21 236.14 487.01 238.42 493.94 240.07 C 493.84 240.41 493.64 241.11 493.54 241.45 C 501.06 243.30 508.38 245.92 516.06 247.07 C 519.51 247.48 521.45 251.19 524.96 251.45 C 532.66 252.27 540.53 251.27 548.13 253.17 C 557.59 254.36 565.55 259.95 573.98 263.95 C 583.69 268.64 593.20 274.45 604.05 276.05 C 607.58 276.71 610.86 278.27 614.09 279.79 C 619.23 282.16 621.71 288.02 626.96 290.25 C 633.36 292.67 640.29 291.59 646.95 291.51 C 648.99 291.37 650.73 292.55 652.39 293.57 C 658.47 297.53 665.94 299.12 671.36 304.11 C 661.80 302.59 652.86 298.67 643.39 296.76 C 649.00 302.52 655.79 306.93 661.75 312.29 C 665.05 315.07 664.16 319.81 664.59 323.63 C 673.84 327.53 683.54 330.27 692.79 334.17 C 694.05 338.74 695.90 343.24 696.07 348.03 C 696.07 349.89 694.14 350.89 692.90 351.97 C 683.93 358.06 674.46 363.41 665.67 369.78 C 678.50 371.70 691.95 370.57 704.20 375.48 C 700.84 380.93 696.94 386.02 693.20 391.22 C 690.67 394.63 688.14 398.21 684.54 400.57 C 680.95 403.08 676.71 404.58 673.41 407.49 C 672.22 410.82 675.31 413.52 676.80 416.18 C 680.31 420.69 680.51 426.57 680.89 432.02 C 681.27 438.65 682.61 445.24 682.29 451.91 C 681.85 462.98 674.62 472.74 675.38 483.98 C 675.95 491.81 676.85 499.63 677.94 507.41 C 684.74 499.59 690.25 490.62 694.04 480.96 C 700.33 465.75 706.85 450.64 713.73 435.69 C 719.87 422.48 724.93 408.81 730.39 395.31 C 732.09 395.22 733.79 395.12 735.52 395.04 C 733.69 405.71 729.88 415.89 727.34 426.38 C 723.58 438.25 720.39 450.30 716.03 461.97 C 712.36 471.84 707.40 481.27 704.65 491.46 C 704.61 491.65 704.53 492.04 704.49 492.24 C 702.21 498.24 701.52 504.67 700.13 510.91 C 698.66 520.88 694.86 530.28 692.31 539.98 C 689.56 549.11 688.31 558.60 685.63 567.74 C 683.97 573.66 682.79 579.86 683.48 586.03 C 684.34 591.29 687.49 595.87 688.26 601.15 C 686.12 606.21 678.52 605.62 677.06 611.04 C 674.86 616.59 672.97 622.26 670.59 627.74 C 668.36 621.61 664.33 615.84 664.53 609.08 C 665.03 601.84 668.02 595.00 668.05 587.70 C 664.04 593.75 660.09 600.03 658.23 607.12 C 656.32 614.40 654.68 621.74 652.92 629.06 C 652.32 631.26 651.78 633.57 650.42 635.45 C 645.81 640.87 638.38 643.62 634.87 650.00 C 636.92 654.33 640.97 657.22 644.14 660.68 C 628.88 666.44 612.81 670.57 596.39 670.35 C 599.57 666.30 604.24 663.33 606.45 658.58 C 608.04 652.96 609.21 647.02 608.75 641.16 C 601.18 637.68 592.73 636.69 584.67 634.79 C 584.98 641.93 586.18 649.00 586.64 656.14 C 578.02 655.77 569.42 654.36 560.78 655.22 C 564.75 660.11 569.78 663.93 574.66 667.86 C 570.79 674.13 565.97 679.71 561.44 685.50 C 560.28 687.32 558.20 689.40 559.33 691.72 C 560.94 695.61 563.51 698.99 565.64 702.60 C 558.39 706.43 550.21 707.69 542.57 710.45 C 541.47 710.94 539.86 711.18 539.95 712.72 C 544.99 715.84 550.78 717.43 556.13 719.92 C 560.60 721.89 565.08 724.23 570.08 724.44 C 582.06 725.09 594.08 724.23 605.94 722.48 C 610.68 721.86 615.41 720.90 620.21 720.93 C 621.36 725.88 620.77 731.01 620.96 736.05 C 617.57 736.84 614.42 738.41 610.98 738.98 C 607.14 737.80 604.66 733.02 600.14 733.71 C 592.92 734.90 585.78 736.62 578.77 738.75 C 572.53 740.88 565.72 738.93 560.02 736.16 C 550.84 729.78 542.46 722.29 533.36 715.80 C 528.78 714.03 523.93 712.95 519.60 710.56 C 526.09 708.31 533.05 709.18 539.74 708.05 C 542.31 701.95 545.06 695.92 547.96 689.97 C 549.47 686.64 551.25 683.09 550.61 679.32 C 549.11 671.03 545.79 663.18 544.24 654.90 C 543.33 651.14 546.64 648.41 548.68 645.74 C 549.21 654.69 547.71 663.92 550.55 672.61 C 552.21 677.90 553.90 683.18 555.79 688.39 C 555.52 673.10 551.06 658.23 550.30 642.97 C 551.76 641.19 553.55 639.43 553.87 637.04 C 555.15 629.68 555.91 622.24 556.72 614.83 C 553.98 618.76 551.38 622.80 548.76 626.81 C 542.87 622.49 537.08 617.99 531.95 612.77 C 536.45 603.31 543.84 595.50 547.64 585.67 C 550.15 579.20 552.79 572.79 555.38 566.35 C 559.64 555.66 559.36 543.87 562.98 533.01 C 565.13 526.55 567.52 520.18 569.71 513.73 C 572.16 506.23 578.42 501.09 583.15 495.08 C 586.40 491.02 589.80 486.65 594.90 484.87 C 601.15 482.50 607.22 479.06 614.04 478.75 C 622.48 478.28 630.86 480.08 639.30 479.55 C 630.94 474.24 621.20 471.82 612.37 467.48 C 610.87 466.75 609.49 465.65 608.94 464.04 C 607.27 460.00 606.28 455.72 604.85 451.60 C 601.12 453.86 597.66 456.53 594.52 459.55 C 589.37 464.43 583.50 468.46 578.46 473.45 C 572.49 479.16 567.29 485.77 560.28 490.28 C 553.90 494.42 547.07 497.82 540.80 502.13 C 540.97 506.22 541.50 510.31 542.63 514.26 C 545.31 523.64 544.23 533.46 544.55 543.07 C 544.47 546.84 545.06 551.21 542.33 554.26 C 535.92 561.89 528.12 568.78 524.19 578.15 C 522.27 585.58 527.88 592.50 527.00 599.96 C 523.90 603.00 519.85 604.78 516.30 607.22 C 511.92 609.75 507.60 614.32 502.06 612.81 C 492.60 610.80 482.43 607.83 476.22 599.87 C 472.43 594.55 470.04 588.39 466.36 582.99 C 460.81 588.77 456.97 595.95 451.21 601.56 C 450.38 592.45 449.43 583.33 449.81 574.17 C 459.36 576.15 468.58 579.52 478.22 581.06 C 477.05 577.48 475.81 573.40 471.99 571.82 C 463.21 567.38 454.62 562.57 445.80 558.21 C 445.98 550.82 445.18 542.79 449.25 536.21 C 452.95 530.27 457.17 524.67 460.67 518.61 C 464.23 512.34 462.60 504.86 462.46 498.03 C 458.11 499.33 453.83 500.87 449.65 502.64 C 445.85 504.25 441.77 505.72 438.93 508.87 C 433.83 514.56 429.72 521.05 424.75 526.85 C 421.94 530.14 417.62 531.30 413.72 532.71 C 408.05 534.61 402.48 536.74 396.87 538.79 C 388.15 542.06 378.82 539.31 369.83 539.50 C 372.97 556.23 378.32 572.49 380.98 589.33 C 370.41 588.03 360.03 585.61 349.56 583.73 C 350.18 579.23 350.73 574.72 351.12 570.19 C 345.93 565.97 340.78 561.66 334.94 558.35 C 335.53 566.80 337.38 575.09 338.11 583.53 C 329.50 581.95 321.07 579.61 312.59 577.50 C 311.00 576.89 308.84 576.79 308.06 575.02 C 306.30 571.87 305.14 568.43 303.74 565.13 C 309.62 559.35 316.54 554.70 322.05 548.54 C 326.50 544.84 331.93 541.80 334.56 536.41 C 337.15 531.09 338.60 525.32 340.48 519.74 C 342.37 515.79 343.45 511.46 345.75 507.73 C 348.22 505.14 351.79 504.07 354.78 502.24 C 358.20 500.87 361.78 499.96 365.30 498.91 C 361.91 501.37 358.47 503.75 354.93 505.98 C 361.98 504.32 368.83 501.75 376.05 500.86 C 382.97 499.99 389.89 499.07 396.86 498.82 C 390.33 506.35 381.54 511.39 374.80 518.71 C 378.43 520.70 382.75 523.19 386.90 521.03 C 395.00 517.08 403.21 513.34 411.30 509.35 C 417.25 506.50 423.69 504.95 429.95 502.95 C 437.51 500.61 445.00 497.70 452.95 497.00 C 462.74 495.89 472.86 496.53 482.31 493.26 C 493.45 489.52 504.60 485.81 515.61 481.70 C 519.49 480.25 523.75 478.80 526.21 475.21 C 531.46 467.75 536.51 460.14 541.61 452.57 C 543.74 448.90 548.27 448.71 551.96 447.84 C 558.90 446.64 563.98 441.40 569.61 437.62 C 574.03 434.34 579.02 431.88 584.33 430.40 C 596.10 427.07 607.59 422.87 619.31 419.38 C 624.14 417.79 629.13 416.67 633.86 414.80 C 636.42 413.90 637.94 411.52 639.27 409.31 C 641.93 404.75 644.35 400.06 646.81 395.40 C 643.10 394.72 639.39 394.08 635.68 393.46 C 631.70 397.58 628.21 402.13 624.40 406.39 C 621.95 409.26 618.41 410.76 614.89 411.85 C 608.04 413.99 601.25 416.31 594.39 418.42 C 583.40 421.73 572.55 425.99 561.01 427.01 C 551.51 427.76 541.94 430.69 532.44 428.30 C 545.84 424.20 560.58 423.59 572.75 416.11 C 581.06 412.79 588.67 407.85 597.27 405.23 C 604.40 403.03 611.52 400.81 618.68 398.69 C 622.77 397.49 626.68 395.63 630.04 392.98 C 636.57 387.88 643.05 382.71 649.65 377.69 C 659.65 370.08 670.65 363.93 681.03 356.87 C 681.34 349.47 680.81 342.08 679.74 334.77 C 671.22 338.67 663.24 343.62 654.97 347.97 C 648.47 351.42 641.14 352.59 634.09 354.40 C 620.46 357.86 606.76 361.04 592.96 363.76 C 588.43 364.71 583.45 365.52 580.11 369.03 C 575.32 373.88 572.20 380.70 565.66 383.58 C 558.34 386.76 550.82 389.50 543.25 392.04 C 539.82 381.90 536.94 371.59 533.48 361.46 C 528.61 359.96 523.38 357.41 518.27 359.29 C 509.41 362.36 501.42 368.07 491.94 369.20 C 483.32 370.56 474.49 369.47 465.93 371.23 C 462.52 371.86 459.75 374.08 457.17 376.24 C 445.60 386.17 433.03 394.85 420.52 403.53 C 418.71 404.94 416.42 406.46 416.29 408.99 C 415.81 413.28 416.06 417.60 416.02 421.90 C 410.03 422.97 404.07 424.27 398.01 424.84 C 390.14 425.60 382.73 421.95 374.92 421.92 C 371.74 421.88 369.19 424.05 366.66 425.68 C 361.30 429.52 355.32 432.50 350.39 436.93 C 359.74 437.58 368.70 434.38 377.94 433.61 C 377.84 438.73 378.50 443.82 378.64 448.93 C 378.93 450.67 376.81 451.00 375.71 451.70 C 369.29 454.38 362.73 456.70 356.31 459.40 C 347.13 463.43 336.87 462.35 327.14 463.43 C 321.27 464.26 316.29 467.71 311.05 470.22 C 300.82 475.24 291.63 482.05 281.81 487.77 C 277.88 490.02 274.49 493.09 271.65 496.59 C 267.06 502.34 260.89 506.86 257.60 513.60 C 262.70 511.64 266.93 508.07 271.86 505.79 C 274.88 504.12 277.98 506.44 280.78 507.47 C 279.39 516.03 277.11 524.48 273.53 532.39 C 271.01 537.93 268.36 543.41 265.97 549.01 C 264.84 551.35 263.75 554.29 260.89 554.89 C 255.10 556.42 249.12 558.38 243.08 557.97 C 236.46 553.99 232.96 546.59 227.63 541.19 C 227.68 539.06 227.74 536.94 227.79 534.82 C 228.46 523.77 226.37 512.60 228.29 501.64 C 229.50 505.76 230.02 510.15 231.88 514.05 C 233.73 515.71 236.46 516.45 238.89 515.86 C 240.85 515.02 242.47 513.56 244.13 512.25 C 249.80 507.39 255.96 503.16 261.63 498.30 C 259.49 497.69 257.35 497.09 255.20 496.50 C 254.16 486.85 254.18 477.11 255.23 467.46 C 259.91 464.84 264.46 461.98 268.98 459.10 C 282.69 450.11 297.28 442.60 311.66 434.76 C 312.69 434.13 313.75 433.51 314.60 432.64 C 316.36 424.33 312.66 415.03 317.31 407.37 C 322.71 398.18 327.82 388.78 333.91 380.01 C 344.26 365.06 353.48 349.38 363.18 334.01 C 367.59 327.29 373.04 321.35 377.89 314.96 C 380.97 311.07 383.89 306.65 388.62 304.62 C 394.07 302.24 399.77 300.50 405.30 298.31 C 409.21 296.94 413.00 295.02 417.15 294.46 C 422.82 294.92 427.22 299.51 432.87 300.08 C 439.63 296.04 443.99 289.11 450.05 284.18 C 458.64 276.85 469.07 272.01 477.46 264.44 C 481.51 260.32 485.10 255.67 487.98 250.67 C 487.92 250.38 487.78 249.81 487.71 249.52 C 482.89 248.27 477.87 248.27 472.94 247.80 C 467.89 247.36 462.94 245.58 457.82 246.26 C 449.54 247.17 441.26 248.16 432.96 248.83 C 430.28 249.17 428.39 246.91 426.49 245.41 C 421.96 241.25 417.47 236.89 411.86 234.17 C 419.51 233.99 427.39 235.29 434.78 232.68 M 580.09 442.99 C 571.09 449.24 567.74 460.50 559.86 467.81 C 550.32 475.02 540.61 482.00 531.16 489.32 C 531.20 493.05 531.57 496.77 532.51 500.39 C 533.62 497.84 534.53 495.21 535.66 492.67 C 536.74 489.90 539.31 488.22 541.48 486.36 C 549.72 479.66 557.11 471.97 565.70 465.70 C 572.65 460.63 579.67 455.65 586.72 450.74 C 592.16 447.50 591.53 440.24 591.87 434.78 C 587.64 437.06 583.92 440.12 580.09 442.99 M 666.63 439.25 C 666.45 445.61 667.43 451.90 668.31 458.18 C 668.81 461.38 668.76 464.79 670.40 467.70 C 671.24 462.47 672.36 457.28 672.90 452.02 C 673.45 446.92 669.80 442.77 666.63 439.25 M 600.30 501.20 C 598.48 503.54 596.37 505.95 596.09 509.04 C 595.06 517.91 593.89 526.79 594.24 535.74 C 601.57 532.70 608.49 528.80 615.67 525.44 C 615.46 511.34 616.57 497.15 614.50 483.14 C 608.75 488.32 605.17 495.28 600.30 501.20 M 629.32 484.99 C 629.16 492.31 630.96 499.51 630.56 506.84 C 630.77 506.56 631.18 505.99 631.38 505.71 C 632.45 499.57 633.79 493.46 634.51 487.27 C 633.09 485.98 631.05 485.69 629.32 484.99 M 494.43 504.56 C 492.35 506.81 490.63 509.35 488.97 511.92 C 496.59 510.14 504.18 508.23 511.76 506.28 C 511.12 500.89 508.55 496.03 506.75 490.98 C 502.22 495.12 498.64 500.13 494.43 504.56 M 500.38 510.94 C 499.82 513.15 498.17 515.90 500.25 517.84 C 503.93 522.19 507.70 526.53 512.13 530.15 C 509.08 523.33 506.03 516.05 500.38 510.94 M 528.04 517.14 C 523.20 527.83 517.22 538.15 514.55 549.68 C 512.77 556.78 509.96 563.65 509.03 570.96 C 512.81 568.55 516.69 566.07 519.55 562.57 C 521.46 559.35 521.98 555.54 523.15 552.02 C 525.57 544.19 527.57 536.24 529.38 528.24 C 530.43 524.66 530.93 520.96 530.89 517.23 C 530.18 517.21 528.75 517.16 528.04 517.14 M 476.47 517.98 C 477.02 526.42 472.33 533.75 470.24 541.66 C 475.92 540.27 481.62 538.88 487.08 536.77 C 484.71 529.95 481.03 523.56 476.47 517.98 M 656.61 518.12 C 656.68 526.59 655.77 535.03 654.84 543.44 C 653.22 550.57 651.67 557.72 650.41 564.93 C 655.19 563.21 661.74 562.37 663.71 556.92 C 667.32 547.63 671.23 538.45 674.60 529.07 C 669.05 524.75 662.94 521.17 656.61 518.12 M 569.40 538.47 C 567.57 545.97 565.99 553.53 564.22 561.04 C 563.46 564.66 562.34 568.42 563.21 572.13 C 564.25 576.57 565.78 580.91 567.80 585.00 C 571.86 578.89 574.15 571.86 577.49 565.36 C 579.88 561.32 577.52 556.91 575.96 553.07 C 573.77 548.20 572.44 542.92 569.40 538.47 M 582.17 568.98 C 579.47 572.74 578.68 577.38 577.61 581.79 C 576.29 587.60 574.31 593.30 573.94 599.30 C 579.17 596.68 583.15 592.32 587.60 588.64 C 590.68 586.45 589.79 582.25 590.35 579.00 C 590.59 571.71 592.80 564.43 591.39 557.14 C 587.92 560.76 585.03 564.87 582.17 568.98 M 605.96 571.29 C 607.15 574.04 607.55 577.89 610.71 579.14 C 615.95 581.25 621.49 582.53 627.01 583.69 C 623.55 579.97 618.83 577.94 614.62 575.27 C 611.91 573.58 608.96 572.33 605.96 571.29 M 596.83 587.84 C 595.07 592.71 592.15 597.31 592.21 602.66 C 595.10 605.12 598.22 607.30 601.61 609.02 C 601.54 598.91 601.78 588.80 601.49 578.70 C 599.26 581.36 597.99 584.61 596.83 587.84 M 549.37 590.38 C 548.39 599.05 545.74 607.62 546.30 616.39 C 548.31 610.32 550.26 604.18 551.49 597.90 C 552.09 595.16 550.85 592.59 549.37 590.38 M 619.35 610.91 C 619.14 614.46 621.08 617.62 622.31 620.84 C 624.47 625.74 625.90 631.00 628.66 635.63 C 628.83 635.61 629.18 635.58 629.35 635.57 C 631.87 630.04 634.06 623.38 631.49 617.48 C 629.33 612.34 627.52 607.06 625.33 601.93 C 622.43 604.14 619.80 607.16 619.35 610.91 Z" />
<path fill="#dda257" opacity="1.00" d=" M 327.07 338.20 C 333.71 334.01 340.05 329.26 347.22 325.97 C 342.72 335.15 335.35 342.46 330.10 351.17 C 325.11 359.54 320.13 367.92 315.46 376.47 C 314.32 378.21 313.45 380.58 311.21 381.15 C 306.92 382.56 302.37 382.81 297.89 382.83 C 300.45 375.82 304.77 369.69 307.96 363.00 C 310.93 356.75 314.54 350.85 318.28 345.05 C 320.31 341.78 323.95 340.21 327.07 338.20 Z" />
<path fill="#dda257" opacity="1.00" d=" M 510.32 368.34 C 513.82 369.74 517.81 370.65 520.52 373.45 C 522.89 379.07 523.92 385.31 523.62 391.41 C 515.79 393.63 507.93 395.77 500.05 397.80 C 502.69 387.72 506.88 378.15 510.32 368.34 Z" />
<path fill="#dda257" opacity="1.00" d=" M 488.95 432.98 C 492.27 430.44 495.08 427.01 499.10 425.57 C 503.14 425.04 507.18 426.03 511.20 426.42 C 505.43 427.48 500.53 430.83 495.44 433.52 C 489.75 436.69 483.44 439.06 478.81 443.80 C 473.98 448.66 469.20 453.58 464.32 458.39 C 460.70 462.07 456.64 465.41 453.79 469.76 C 449.96 475.65 448.18 482.57 444.74 488.66 C 442.37 492.99 437.95 495.56 433.80 497.92 C 431.83 498.88 429.37 500.44 427.35 498.70 C 420.96 494.56 415.85 488.76 409.58 484.47 C 408.53 483.87 407.37 483.00 406.10 483.37 C 402.11 484.23 398.22 485.53 394.14 485.96 C 398.20 483.94 402.33 482.02 406.65 480.64 C 412.02 478.94 417.73 478.91 423.30 479.18 C 428.77 479.87 434.27 481.02 439.81 480.34 C 442.78 480.07 444.45 477.29 446.18 475.21 C 451.40 468.06 458.58 462.52 463.03 454.78 C 465.37 451.93 467.98 449.31 470.83 446.97 C 477.45 443.09 482.86 437.59 488.95 432.98 Z" />
<path fill="#dda257" opacity="1.00" d=" M 512.99 434.82 C 515.36 433.67 517.88 435.11 520.15 435.85 C 525.53 438.16 531.43 439.35 536.26 442.80 C 534.27 448.79 531.97 454.68 529.42 460.45 C 528.34 463.07 525.49 464.06 523.14 465.20 C 515.93 468.25 508.73 471.30 501.64 474.63 C 498.93 475.76 495.94 477.34 492.96 476.18 C 487.98 474.77 483.25 472.60 478.46 470.68 C 480.02 469.09 481.65 467.53 483.55 466.33 C 491.49 461.42 499.24 456.21 507.20 451.32 C 502.14 450.98 497.05 451.10 492.05 451.92 C 489.37 452.47 486.66 451.99 484.08 451.25 C 489.35 447.56 495.46 445.35 500.97 442.04 C 505.05 439.77 508.70 436.73 512.99 434.82 Z" />
<path fill="#dda257" opacity="1.00" d=" M 398.98 543.83 C 401.24 543.40 403.86 542.57 405.94 543.97 C 410.11 546.72 413.60 550.35 417.52 553.43 C 420.52 556.07 423.95 558.27 426.59 561.30 C 427.09 563.17 426.62 565.14 426.19 566.99 C 424.59 572.72 422.67 578.36 420.60 583.95 C 422.83 587.25 424.38 591.01 423.70 595.08 C 422.04 591.63 420.56 588.08 418.33 584.95 C 413.55 589.99 409.56 595.89 403.77 599.89 C 398.13 592.01 392.49 584.12 386.53 576.48 C 383.22 572.46 382.74 567.14 381.64 562.26 C 380.66 557.93 379.81 553.57 379.20 549.17 C 385.69 547.01 392.39 545.62 398.98 543.83 Z" />
<path fill="#dda257" opacity="1.00" d=" M 245.19 564.23 C 247.74 562.74 250.73 563.55 253.48 563.85 C 253.98 569.40 254.03 575.25 256.74 580.28 C 259.42 585.24 262.82 589.76 265.76 594.57 L 266.16 595.32 C 274.09 590.80 280.54 584.23 287.63 578.57 C 292.77 583.18 294.97 589.89 298.35 595.72 C 300.19 599.02 302.86 601.75 305.45 604.48 C 293.95 603.30 281.47 604.94 271.06 598.92 C 264.66 595.51 258.15 592.32 251.61 589.19 C 248.71 595.45 246.54 602.04 244.56 608.65 C 242.10 617.16 245.82 625.69 245.70 634.26 C 242.92 633.12 239.87 632.44 237.36 630.76 C 235.01 628.05 233.37 624.81 231.19 621.97 C 228.72 618.30 225.69 614.96 223.80 610.94 C 223.73 604.65 223.00 598.30 223.68 592.03 C 224.82 586.95 225.01 581.71 224.40 576.55 C 225.95 575.46 227.51 574.37 229.16 573.43 C 234.63 570.59 239.77 567.17 245.19 564.23 Z" />
<path fill="#dda257" opacity="1.00" d=" M 250.66 635.98 C 259.27 638.05 267.92 640.11 276.28 643.05 C 275.89 643.12 275.11 643.25 274.71 643.32 C 268.47 644.60 262.95 640.63 257.04 639.44 C 254.58 638.97 252.33 637.87 250.66 635.98 Z" />
<path fill="#dda257" opacity="1.00" d=" M 644.99 720.34 C 648.73 713.05 651.12 705.18 654.80 697.86 C 654.37 703.78 654.83 709.80 653.44 715.61 C 652.55 719.27 651.46 722.88 650.55 726.54 C 645.03 727.36 639.18 726.62 633.97 728.93 C 631.00 730.18 627.99 731.35 624.88 732.23 C 628.80 725.11 633.10 718.19 637.98 711.68 C 640.27 714.60 642.59 717.50 644.99 720.34 Z" />
</g>
<g id="#f2e0bcff">
<path fill="#f2e0bc" opacity="1.00" d=" M 389.17 229.63 C 390.79 229.55 392.41 229.47 394.04 229.46 C 399.99 230.96 406.17 231.82 411.86 234.17 C 417.47 236.89 421.96 241.25 426.49 245.41 C 428.39 246.91 430.28 249.17 432.96 248.83 C 441.26 248.16 449.54 247.17 457.82 246.26 C 462.94 245.58 467.89 247.36 472.94 247.80 C 477.87 248.27 482.89 248.27 487.71 249.52 C 487.78 249.81 487.92 250.38 487.98 250.67 C 485.10 255.67 481.51 260.32 477.46 264.44 C 469.07 272.01 458.64 276.85 450.05 284.18 C 443.99 289.11 439.63 296.04 432.87 300.08 C 427.22 299.51 422.82 294.92 417.15 294.46 C 413.00 295.02 409.21 296.94 405.30 298.31 C 399.77 300.50 394.07 302.24 388.62 304.62 C 383.89 306.65 380.97 311.07 377.89 314.96 C 373.04 321.35 367.59 327.29 363.18 334.01 C 353.48 349.38 344.26 365.06 333.91 380.01 C 327.82 388.78 322.71 398.18 317.31 407.37 C 312.66 415.03 316.36 424.33 314.60 432.64 C 313.75 433.51 312.69 434.13 311.66 434.76 C 297.28 442.60 282.69 450.11 268.98 459.10 C 264.46 461.98 259.91 464.84 255.23 467.46 C 254.18 477.11 254.16 486.85 255.20 496.50 C 257.35 497.09 259.49 497.69 261.63 498.30 C 255.96 503.16 249.80 507.39 244.13 512.25 C 242.47 513.56 240.85 515.02 238.89 515.86 C 236.46 516.45 233.73 515.71 231.88 514.05 C 230.02 510.15 229.50 505.76 228.29 501.64 C 227.05 496.25 226.73 490.72 226.17 485.24 C 232.61 479.94 239.31 474.96 245.82 469.76 C 248.01 467.93 250.62 466.12 251.25 463.13 C 253.94 452.38 256.55 441.57 260.09 431.06 C 263.81 423.11 267.35 415.06 270.90 407.03 C 276.38 394.14 279.41 380.39 284.47 367.37 C 289.25 358.02 295.44 349.45 299.84 339.89 C 304.99 331.21 310.05 322.43 314.17 313.20 C 318.43 303.62 323.59 294.32 325.96 284.03 C 326.95 279.96 327.28 275.73 328.74 271.78 C 331.25 265.45 339.54 263.78 341.40 257.04 C 343.41 252.19 343.88 245.85 348.94 243.04 C 351.58 241.40 353.24 238.71 355.47 236.63 C 360.90 234.27 366.66 232.71 372.19 230.55 C 377.43 230.43 381.10 234.69 385.32 237.15 C 386.61 234.65 387.91 232.15 389.17 229.63 M 327.07 338.20 C 323.95 340.21 320.31 341.78 318.28 345.05 C 314.54 350.85 310.93 356.75 307.96 363.00 C 304.77 369.69 300.45 375.82 297.89 382.83 C 302.37 382.81 306.92 382.56 311.21 381.15 C 313.45 380.58 314.32 378.21 315.46 376.47 C 320.13 367.92 325.11 359.54 330.10 351.17 C 335.35 342.46 342.72 335.15 347.22 325.97 C 340.05 329.26 333.71 334.01 327.07 338.20 Z" />
<path fill="#f2e0bc" opacity="1.00" d=" M 643.39 296.76 C 652.86 298.67 661.80 302.59 671.36 304.11 C 674.24 304.90 676.85 306.40 679.60 307.52 C 684.55 309.70 689.82 311.08 694.72 313.38 C 697.40 314.54 698.49 317.62 701.07 318.95 C 703.73 320.54 706.96 321.67 708.49 324.60 C 711.57 329.82 714.35 335.22 717.64 340.32 C 720.89 345.65 725.26 350.22 728.18 355.76 C 730.46 359.95 731.36 364.69 732.79 369.20 C 733.50 369.22 734.92 369.26 735.63 369.28 C 737.25 373.02 738.97 376.85 739.48 380.93 C 739.60 386.97 739.64 393.01 739.66 399.06 C 739.87 406.31 737.34 413.23 734.85 419.92 C 733.89 422.68 732.05 424.97 730.10 427.08 C 727.02 430.25 727.22 434.96 725.85 438.90 C 723.81 444.91 722.01 451.00 719.87 456.98 C 717.13 464.91 715.68 473.21 713.17 481.21 C 711.80 486.01 707.92 489.40 704.39 492.67 L 704.49 492.24 C 704.53 492.04 704.61 491.65 704.65 491.46 C 707.40 481.27 712.36 471.84 716.03 461.97 C 720.39 450.30 723.58 438.25 727.34 426.38 C 729.88 415.89 733.69 405.71 735.52 395.04 C 733.79 395.12 732.09 395.22 730.39 395.31 C 724.93 408.81 719.87 422.48 713.73 435.69 C 706.85 450.64 700.33 465.75 694.04 480.96 C 690.25 490.62 684.74 499.59 677.94 507.41 C 676.85 499.63 675.95 491.81 675.38 483.98 C 674.62 472.74 681.85 462.98 682.29 451.91 C 682.61 445.24 681.27 438.65 680.89 432.02 C 680.51 426.57 680.31 420.69 676.80 416.18 C 675.31 413.52 672.22 410.82 673.41 407.49 C 676.71 404.58 680.95 403.08 684.54 400.57 C 688.14 398.21 690.67 394.63 693.20 391.22 C 696.94 386.02 700.84 380.93 704.20 375.48 C 691.95 370.57 678.50 371.70 665.67 369.78 C 674.46 363.41 683.93 358.06 692.90 351.97 C 694.14 350.89 696.07 349.89 696.07 348.03 C 695.90 343.24 694.05 338.74 692.79 334.17 C 683.54 330.27 673.84 327.53 664.59 323.63 C 664.16 319.81 665.05 315.07 661.75 312.29 C 655.79 306.93 649.00 302.52 643.39 296.76 Z" />
<path fill="#f2e0bc" opacity="1.00" d=" M 624.40 406.39 C 628.21 402.13 631.70 397.58 635.68 393.46 C 639.39 394.08 643.10 394.72 646.81 395.40 C 644.35 400.06 641.93 404.75 639.27 409.31 C 637.94 411.52 636.42 413.90 633.86 414.80 C 629.13 416.67 624.14 417.79 619.31 419.38 C 607.59 422.87 596.10 427.07 584.33 430.40 C 579.02 431.88 574.03 434.34 569.61 437.62 C 563.98 441.40 558.90 446.64 551.96 447.84 C 548.27 448.71 543.74 448.90 541.61 452.57 C 536.51 460.14 531.46 467.75 526.21 475.21 C 523.75 478.80 519.49 480.25 515.61 481.70 C 504.60 485.81 493.45 489.52 482.31 493.26 C 472.86 496.53 462.74 495.89 452.95 497.00 C 445.00 497.70 437.51 500.61 429.95 502.95 C 423.69 504.95 417.25 506.50 411.30 509.35 C 403.21 513.34 395.00 517.08 386.90 521.03 C 382.75 523.19 378.43 520.70 374.80 518.71 C 381.54 511.39 390.33 506.35 396.86 498.82 C 389.89 499.07 382.97 499.99 376.05 500.86 C 368.83 501.75 361.98 504.32 354.93 505.98 C 358.47 503.75 361.91 501.37 365.30 498.91 C 374.06 493.11 384.89 491.87 393.67 486.14 C 393.79 486.10 394.02 486.01 394.14 485.96 C 398.22 485.53 402.11 484.23 406.10 483.37 C 407.37 483.00 408.53 483.87 409.58 484.47 C 415.85 488.76 420.96 494.56 427.35 498.70 C 429.37 500.44 431.83 498.88 433.80 497.92 C 437.95 495.56 442.37 492.99 444.74 488.66 C 448.18 482.57 449.96 475.65 453.79 469.76 C 456.64 465.41 460.70 462.07 464.32 458.39 C 469.20 453.58 473.98 448.66 478.81 443.80 C 483.44 439.06 489.75 436.69 495.44 433.52 C 500.53 430.83 505.43 427.48 511.20 426.42 C 516.84 427.07 522.51 427.45 528.18 427.83 C 529.59 427.98 531.01 428.14 532.44 428.30 C 541.94 430.69 551.51 427.76 561.01 427.01 C 572.55 425.99 583.40 421.73 594.39 418.42 C 601.25 416.31 608.04 413.99 614.89 411.85 C 618.41 410.76 621.95 409.26 624.40 406.39 M 512.99 434.82 C 508.70 436.73 505.05 439.77 500.97 442.04 C 495.46 445.35 489.35 447.56 484.08 451.25 C 486.66 451.99 489.37 452.47 492.05 451.92 C 497.05 451.10 502.14 450.98 507.20 451.32 C 499.24 456.21 491.49 461.42 483.55 466.33 C 481.65 467.53 480.02 469.09 478.46 470.68 C 483.25 472.60 487.98 474.77 492.96 476.18 C 495.94 477.34 498.93 475.76 501.64 474.63 C 508.73 471.30 515.93 468.25 523.14 465.20 C 525.49 464.06 528.34 463.07 529.42 460.45 C 531.97 454.68 534.27 448.79 536.26 442.80 C 531.43 439.35 525.53 438.16 520.15 435.85 C 517.88 435.11 515.36 433.67 512.99 434.82 Z" />
<path fill="#f2e0bc" opacity="1.00" d=" M 580.09 442.99 C 583.92 440.12 587.64 437.06 591.87 434.78 C 591.53 440.24 592.16 447.50 586.72 450.74 C 579.67 455.65 572.65 460.63 565.70 465.70 C 557.11 471.97 549.72 479.66 541.48 486.36 C 539.31 488.22 536.74 489.90 535.66 492.67 C 534.53 495.21 533.62 497.84 532.51 500.39 C 531.57 496.77 531.20 493.05 531.16 489.32 C 540.61 482.00 550.32 475.02 559.86 467.81 C 567.74 460.50 571.09 449.24 580.09 442.99 Z" />
<path fill="#f2e0bc" opacity="1.00" d=" M 666.63 439.25 C 669.80 442.77 673.45 446.92 672.90 452.02 C 672.36 457.28 671.24 462.47 670.40 467.70 C 668.76 464.79 668.81 461.38 668.31 458.18 C 667.43 451.90 666.45 445.61 666.63 439.25 Z" />
<path fill="#f2e0bc" opacity="1.00" d=" M 629.32 484.99 C 631.05 485.69 633.09 485.98 634.51 487.27 C 633.79 493.46 632.45 499.57 631.38 505.71 C 631.18 505.99 630.77 506.56 630.56 506.84 C 630.96 499.51 629.16 492.31 629.32 484.99 Z" />
<path fill="#f2e0bc" opacity="1.00" d=" M 494.43 504.56 C 498.64 500.13 502.22 495.12 506.75 490.98 C 508.55 496.03 511.12 500.89 511.76 506.28 C 504.18 508.23 496.59 510.14 488.97 511.92 C 490.63 509.35 492.35 506.81 494.43 504.56 Z" />
<path fill="#f2e0bc" opacity="1.00" d=" M 528.04 517.14 C 528.75 517.16 530.18 517.21 530.89 517.23 C 530.93 520.96 530.43 524.66 529.38 528.24 C 527.57 536.24 525.57 544.19 523.15 552.02 C 521.98 555.54 521.46 559.35 519.55 562.57 C 516.69 566.07 512.81 568.55 509.03 570.96 C 509.96 563.65 512.77 556.78 514.55 549.68 C 517.22 538.15 523.20 527.83 528.04 517.14 Z" />
<path fill="#f2e0bc" opacity="1.00" d=" M 656.61 518.12 C 662.94 521.17 669.05 524.75 674.60 529.07 C 671.23 538.45 667.32 547.63 663.71 556.92 C 661.74 562.37 655.19 563.21 650.41 564.93 C 651.67 557.72 653.22 550.57 654.84 543.44 C 655.77 535.03 656.68 526.59 656.61 518.12 Z" />
<path fill="#f2e0bc" opacity="1.00" d=" M 569.40 538.47 C 572.44 542.92 573.77 548.20 575.96 553.07 C 577.52 556.91 579.88 561.32 577.49 565.36 C 574.15 571.86 571.86 578.89 567.80 585.00 C 565.78 580.91 564.25 576.57 563.21 572.13 C 562.34 568.42 563.46 564.66 564.22 561.04 C 565.99 553.53 567.57 545.97 569.40 538.47 Z" />
<path fill="#f2e0bc" opacity="1.00" d=" M 549.37 590.38 C 550.85 592.59 552.09 595.16 551.49 597.90 C 550.26 604.18 548.31 610.32 546.30 616.39 C 545.74 607.62 548.39 599.05 549.37 590.38 Z" />
<path fill="#f2e0bc" opacity="1.00" d=" M 548.68 645.74 C 548.64 642.03 548.97 638.33 549.44 634.67 C 549.76 637.42 550.04 640.19 550.30 642.97 C 551.06 658.23 555.52 673.10 555.79 688.39 C 553.90 683.18 552.21 677.90 550.55 672.61 C 547.71 663.92 549.21 654.69 548.68 645.74 Z" />
</g>
<g id="#9a6635ff">
<path fill="#9a6635" opacity="1.00" d=" M 654.97 347.97 C 663.24 343.62 671.22 338.67 679.74 334.77 C 680.81 342.08 681.34 349.47 681.03 356.87 C 670.65 363.93 659.65 370.08 649.65 377.69 C 643.05 382.71 636.57 387.88 630.04 392.98 C 626.68 395.63 622.77 397.49 618.68 398.69 C 611.52 400.81 604.40 403.03 597.27 405.23 C 588.67 407.85 581.06 412.79 572.75 416.11 C 578.04 409.64 584.03 403.59 591.03 398.98 C 600.98 394.32 613.58 399.82 622.71 392.73 C 630.59 386.93 638.77 381.55 646.55 375.62 C 652.11 371.33 658.13 367.57 662.98 362.44 C 653.10 363.08 643.11 363.53 633.39 365.47 C 623.72 368.84 615.05 374.55 605.70 378.69 C 598.81 381.97 591.63 384.59 584.61 387.58 C 578.83 389.92 573.18 392.78 567.02 394.00 C 557.78 395.94 548.25 395.48 538.98 397.09 C 533.00 398.08 528.80 402.82 524.05 406.14 C 516.97 411.21 509.82 416.46 504.85 423.74 C 512.47 425.93 520.43 426.27 528.18 427.83 C 522.51 427.45 516.84 427.07 511.20 426.42 C 507.18 426.03 503.14 425.04 499.10 425.57 C 495.08 427.01 492.27 430.44 488.95 432.98 C 482.86 437.59 477.45 443.09 470.83 446.97 C 473.90 443.25 477.73 440.10 480.19 435.92 C 479.89 430.21 476.83 425.15 474.74 419.95 C 471.39 422.46 468.44 425.65 464.54 427.30 C 456.46 429.93 447.48 428.95 439.76 432.84 C 434.61 435.49 430.01 439.06 425.12 442.13 C 415.18 448.63 404.08 453.00 393.70 458.71 C 381.11 466.00 367.50 471.39 355.24 479.26 C 345.83 484.94 336.97 491.70 326.70 495.81 C 321.81 497.91 316.73 499.58 311.97 501.99 C 306.81 504.58 303.37 509.38 299.13 513.13 C 292.69 519.01 285.24 524.32 281.37 532.39 C 279.05 537.29 276.18 541.90 273.72 546.73 C 270.71 552.72 271.96 559.61 271.94 566.04 C 272.22 575.94 268.01 585.11 265.76 594.57 C 262.82 589.76 259.42 585.24 256.74 580.28 C 254.03 575.25 253.98 569.40 253.48 563.85 C 250.73 563.55 247.74 562.74 245.19 564.23 C 239.77 567.17 234.63 570.59 229.16 573.43 C 230.55 568.70 232.64 563.98 232.23 558.95 C 231.95 554.69 229.31 551.12 228.26 547.07 C 227.08 543.09 227.25 538.89 227.79 534.82 C 227.74 536.94 227.68 539.06 227.63 541.19 C 232.96 546.59 236.46 553.99 243.08 557.97 C 249.12 558.38 255.10 556.42 260.89 554.89 C 263.75 554.29 264.84 551.35 265.97 549.01 C 268.36 543.41 271.01 537.93 273.53 532.39 C 277.11 524.48 279.39 516.03 280.78 507.47 C 277.98 506.44 274.88 504.12 271.86 505.79 C 266.93 508.07 262.70 511.64 257.60 513.60 C 260.89 506.86 267.06 502.34 271.65 496.59 C 274.49 493.09 277.88 490.02 281.81 487.77 C 291.63 482.05 300.82 475.24 311.05 470.22 C 316.29 467.71 321.27 464.26 327.14 463.43 C 336.87 462.35 347.13 463.43 356.31 459.40 C 362.73 456.70 369.29 454.38 375.71 451.70 C 376.81 451.00 378.93 450.67 378.64 448.93 C 378.50 443.82 377.84 438.73 377.94 433.61 C 368.70 434.38 359.74 437.58 350.39 436.93 C 355.32 432.50 361.30 429.52 366.66 425.68 C 369.19 424.05 371.74 421.88 374.92 421.92 C 382.73 421.95 390.14 425.60 398.01 424.84 C 404.07 424.27 410.03 422.97 416.02 421.90 C 416.06 417.60 415.81 413.28 416.29 408.99 C 416.42 406.46 418.71 404.94 420.52 403.53 C 433.03 394.85 445.60 386.17 457.17 376.24 C 459.75 374.08 462.52 371.86 465.93 371.23 C 474.49 369.47 483.32 370.56 491.94 369.20 C 501.42 368.07 509.41 362.36 518.27 359.29 C 523.38 357.41 528.61 359.96 533.48 361.46 C 536.94 371.59 539.82 381.90 543.25 392.04 C 550.82 389.50 558.34 386.76 565.66 383.58 C 572.20 380.70 575.32 373.88 580.11 369.03 C 583.45 365.52 588.43 364.71 592.96 363.76 C 606.76 361.04 620.46 357.86 634.09 354.40 C 641.14 352.59 648.47 351.42 654.97 347.97 M 510.32 368.34 C 506.88 378.15 502.69 387.72 500.05 397.80 C 507.93 395.77 515.79 393.63 523.62 391.41 C 523.92 385.31 522.89 379.07 520.52 373.45 C 517.81 370.65 513.82 369.74 510.32 368.34 Z" />
<path fill="#9a6635" opacity="1.00" d=" M 594.52 459.55 C 597.66 456.53 601.12 453.86 604.85 451.60 C 606.28 455.72 607.27 460.00 608.94 464.04 C 609.49 465.65 610.87 466.75 612.37 467.48 C 621.20 471.82 630.94 474.24 639.30 479.55 C 630.86 480.08 622.48 478.28 614.04 478.75 C 607.22 479.06 601.15 482.50 594.90 484.87 C 589.80 486.65 586.40 491.02 583.15 495.08 C 578.42 501.09 572.16 506.23 569.71 513.73 C 567.52 520.18 565.13 526.55 562.98 533.01 C 559.36 543.87 559.64 555.66 555.38 566.35 C 552.79 572.79 550.15 579.20 547.64 585.67 C 543.84 595.50 536.45 603.31 531.95 612.77 C 537.08 617.99 542.87 622.49 548.76 626.81 C 551.38 622.80 553.98 618.76 556.72 614.83 C 555.91 622.24 555.15 629.68 553.87 637.04 C 553.55 639.43 551.76 641.19 550.30 642.97 C 550.04 640.19 549.76 637.42 549.44 634.67 C 548.97 638.33 548.64 642.03 548.68 645.74 C 546.64 648.41 543.33 651.14 544.24 654.90 C 545.79 663.18 549.11 671.03 550.61 679.32 C 551.25 683.09 549.47 686.64 547.96 689.97 C 545.06 695.92 542.31 701.95 539.74 708.05 C 533.05 709.18 526.09 708.31 519.60 710.56 C 513.85 712.33 507.79 710.85 501.91 711.42 C 498.51 711.41 494.93 712.82 491.69 711.33 C 485.95 708.82 480.76 704.95 474.60 703.51 C 466.61 702.90 458.91 706.17 450.93 705.88 C 447.17 705.53 443.56 704.31 439.99 703.17 C 436.74 702.32 435.70 698.71 433.32 696.73 C 420.88 693.11 408.64 688.70 395.90 686.14 C 386.30 683.81 378.24 677.95 369.71 673.28 C 361.95 668.75 354.27 664.07 346.62 659.37 C 341.87 656.50 337.51 652.98 332.52 650.55 C 325.52 648.17 318.04 647.50 311.14 644.82 C 307.31 643.78 303.42 642.90 299.83 641.14 C 297.75 639.92 295.38 640.71 293.27 641.35 C 287.30 643.32 280.93 643.25 274.71 643.32 C 275.11 643.25 275.89 643.12 276.28 643.05 C 267.92 640.11 259.27 638.05 250.66 635.98 C 249.00 635.57 247.35 635.07 245.71 634.60 L 245.70 634.26 C 245.82 625.69 242.10 617.16 244.56 608.65 C 246.54 602.04 248.71 595.45 251.61 589.19 C 258.15 592.32 264.66 595.51 271.06 598.92 C 281.47 604.94 293.95 603.30 305.45 604.48 C 302.86 601.75 300.19 599.02 298.35 595.72 C 294.97 589.89 292.77 583.18 287.63 578.57 C 292.99 574.08 298.74 570.04 303.74 565.13 C 305.14 568.43 306.30 571.87 308.06 575.02 C 308.84 576.79 311.00 576.89 312.59 577.50 C 321.07 579.61 329.50 581.95 338.11 583.53 C 337.38 575.09 335.53 566.80 334.94 558.35 C 340.78 561.66 345.93 565.97 351.12 570.19 C 350.73 574.72 350.18 579.23 349.56 583.73 C 360.03 585.61 370.41 588.03 380.98 589.33 C 378.32 572.49 372.97 556.23 369.83 539.50 C 378.82 539.31 388.15 542.06 396.87 538.79 C 402.48 536.74 408.05 534.61 413.72 532.71 C 417.62 531.30 421.94 530.14 424.75 526.85 C 429.72 521.05 433.83 514.56 438.93 508.87 C 441.77 505.72 445.85 504.25 449.65 502.64 C 453.83 500.87 458.11 499.33 462.46 498.03 C 462.60 504.86 464.23 512.34 460.67 518.61 C 457.17 524.67 452.95 530.27 449.25 536.21 C 445.18 542.79 445.98 550.82 445.80 558.21 C 454.62 562.57 463.21 567.38 471.99 571.82 C 475.81 573.40 477.05 577.48 478.22 581.06 C 468.58 579.52 459.36 576.15 449.81 574.17 C 449.43 583.33 450.38 592.45 451.21 601.56 C 456.97 595.95 460.81 588.77 466.36 582.99 C 470.04 588.39 472.43 594.55 476.22 599.87 C 482.43 607.83 492.60 610.80 502.06 612.81 C 507.60 614.32 511.92 609.75 516.30 607.22 C 519.85 604.78 523.90 603.00 527.00 599.96 C 527.88 592.50 522.27 585.58 524.19 578.15 C 528.12 568.78 535.92 561.89 542.33 554.26 C 545.06 551.21 544.47 546.84 544.55 543.07 C 544.23 533.46 545.31 523.64 542.63 514.26 C 541.50 510.31 540.97 506.22 540.80 502.13 C 547.07 497.82 553.90 494.42 560.28 490.28 C 567.29 485.77 572.49 479.16 578.46 473.45 C 583.50 468.46 589.37 464.43 594.52 459.55 M 398.98 543.83 C 392.39 545.62 385.69 547.01 379.20 549.17 C 379.81 553.57 380.66 557.93 381.64 562.26 C 382.74 567.14 383.22 572.46 386.53 576.48 C 392.49 584.12 398.13 592.01 403.77 599.89 C 409.56 595.89 413.55 589.99 418.33 584.95 C 420.56 588.08 422.04 591.63 423.70 595.08 C 424.38 591.01 422.83 587.25 420.60 583.95 C 422.67 578.36 424.59 572.72 426.19 566.99 C 426.62 565.14 427.09 563.17 426.59 561.30 C 423.95 558.27 420.52 556.07 417.52 553.43 C 413.60 550.35 410.11 546.72 405.94 543.97 C 403.86 542.57 401.24 543.40 398.98 543.83 M 347.62 588.93 C 350.93 592.33 354.47 595.99 359.09 597.48 C 364.66 596.90 370.18 595.23 375.21 592.71 C 368.69 591.06 362.05 589.96 355.48 588.62 C 352.86 588.05 350.19 588.28 347.62 588.93 M 255.92 599.23 C 259.22 601.75 263.00 603.51 266.75 605.27 C 268.55 606.28 270.90 607.09 271.53 609.30 C 273.62 615.25 274.54 621.53 276.22 627.60 C 279.19 627.95 282.16 628.37 285.14 628.67 C 295.73 630.03 305.35 624.36 315.50 622.46 C 316.44 628.86 316.69 635.35 317.33 641.79 C 327.98 644.74 338.96 646.10 349.75 648.41 C 355.26 649.54 360.69 647.63 366.04 646.54 C 369.57 649.84 373.05 653.20 376.51 656.58 C 382.98 662.92 390.94 667.39 398.01 672.98 C 405.51 678.92 414.81 681.65 423.30 685.78 C 425.38 686.69 427.48 687.86 429.82 687.83 C 439.01 678.71 445.03 666.27 456.48 659.53 C 455.61 666.36 452.05 672.39 450.29 678.98 C 450.11 680.38 448.86 682.43 450.62 683.36 C 455.64 686.78 461.25 689.28 467.01 691.20 C 467.96 687.21 468.94 683.22 469.96 679.24 C 477.91 677.52 485.93 676.10 494.05 675.62 C 497.19 675.20 500.81 675.45 503.38 673.28 C 507.52 669.81 510.64 665.19 515.20 662.21 C 518.01 663.41 520.21 665.60 522.66 667.38 C 527.85 671.48 533.74 674.76 538.32 679.62 C 540.85 682.33 543.43 685.02 546.57 687.05 C 546.21 678.55 543.80 670.32 542.77 661.90 C 542.35 658.07 538.31 656.44 535.65 654.30 C 530.66 651.21 526.42 646.84 520.96 644.56 C 517.07 646.66 514.75 650.73 511.01 653.05 C 506.82 655.69 503.22 659.11 499.81 662.68 C 491.08 657.90 484.49 650.24 476.65 644.26 C 475.02 642.99 473.11 641.99 470.99 642.08 C 459.05 641.84 447.08 642.63 435.17 641.46 C 426.67 640.60 417.88 641.16 409.68 638.40 C 401.06 635.36 392.68 631.63 383.97 628.88 C 371.13 625.54 357.51 627.20 344.75 623.42 C 333.45 620.13 322.39 616.03 310.90 613.41 C 299.57 610.81 288.05 608.91 276.98 605.30 C 270.00 603.15 263.10 600.63 255.92 599.23 Z" />
<path fill="#9a6635" opacity="1.00" d=" M 447.93 466.91 C 453.81 464.03 458.09 458.93 463.03 454.78 C 458.58 462.52 451.40 468.06 446.18 475.21 C 444.45 477.29 442.78 480.07 439.81 480.34 C 434.27 481.02 428.77 479.87 423.30 479.18 C 431.48 475.04 439.68 470.92 447.93 466.91 Z" />
<path fill="#9a6635" opacity="1.00" d=" M 374.60 491.55 C 380.88 489.49 386.92 486.29 393.67 486.14 C 384.89 491.87 374.06 493.11 365.30 498.91 C 361.78 499.96 358.20 500.87 354.78 502.24 C 359.28 495.54 367.55 494.15 374.60 491.55 Z" />
<path fill="#9a6635" opacity="1.00" d=" M 658.23 607.12 C 660.09 600.03 664.04 593.75 668.05 587.70 C 668.02 595.00 665.03 601.84 664.53 609.08 C 664.33 615.84 668.36 621.61 670.59 627.74 C 670.01 631.07 668.55 634.18 667.55 637.41 C 665.65 642.71 664.55 648.41 661.27 653.11 C 659.41 655.67 659.01 658.83 658.71 661.90 C 658.03 668.92 657.17 675.96 657.29 683.03 C 657.34 688.06 657.09 693.27 654.80 697.86 C 651.12 705.18 648.73 713.05 644.99 720.34 C 642.59 717.50 640.27 714.60 637.98 711.68 C 633.10 718.19 628.80 725.11 624.88 732.23 C 624.08 733.95 622.60 735.16 620.96 736.05 C 620.77 731.01 621.36 725.88 620.21 720.93 C 615.41 720.90 610.68 721.86 605.94 722.48 C 594.08 724.23 582.06 725.09 570.08 724.44 C 565.08 724.23 560.60 721.89 556.13 719.92 C 550.78 717.43 544.99 715.84 539.95 712.72 C 539.86 711.18 541.47 710.94 542.57 710.45 C 550.21 707.69 558.39 706.43 565.64 702.60 C 563.51 698.99 560.94 695.61 559.33 691.72 C 558.20 689.40 560.28 687.32 561.44 685.50 C 565.97 679.71 570.79 674.13 574.66 667.86 C 569.78 663.93 564.75 660.11 560.78 655.22 C 569.42 654.36 578.02 655.77 586.64 656.14 C 586.18 649.00 584.98 641.93 584.67 634.79 C 592.73 636.69 601.18 637.68 608.75 641.16 C 609.21 647.02 608.04 652.96 606.45 658.58 C 604.24 663.33 599.57 666.30 596.39 670.35 C 612.81 670.57 628.88 666.44 644.14 660.68 C 640.97 657.22 636.92 654.33 634.87 650.00 C 638.38 643.62 645.81 640.87 650.42 635.45 C 651.78 633.57 652.32 631.26 652.92 629.06 C 654.68 621.74 656.32 614.40 658.23 607.12 M 610.30 684.29 C 609.81 690.90 612.58 697.76 617.99 701.70 C 624.12 698.15 624.51 690.54 627.69 684.95 C 630.14 689.91 634.32 693.69 637.47 698.19 C 638.24 688.79 635.43 679.61 635.48 670.24 C 627.63 675.89 618.83 679.85 610.30 684.29 Z" />
</g>
<g id="#4b2a14ff">
<path fill="#4b2a14" opacity="1.00" d=" M 633.39 365.47 C 643.11 363.53 653.10 363.08 662.98 362.44 C 658.13 367.57 652.11 371.33 646.55 375.62 C 638.77 381.55 630.59 386.93 622.71 392.73 C 613.58 399.82 600.98 394.32 591.03 398.98 C 584.03 403.59 578.04 409.64 572.75 416.11 C 560.58 423.59 545.84 424.20 532.44 428.30 C 531.01 428.14 529.59 427.98 528.18 427.83 C 520.43 426.27 512.47 425.93 504.85 423.74 C 509.82 416.46 516.97 411.21 524.05 406.14 C 528.80 402.82 533.00 398.08 538.98 397.09 C 548.25 395.48 557.78 395.94 567.02 394.00 C 573.18 392.78 578.83 389.92 584.61 387.58 C 591.63 384.59 598.81 381.97 605.70 378.69 C 615.05 374.55 623.72 368.84 633.39 365.47 Z" />
<path fill="#4b2a14" opacity="1.00" d=" M 464.54 427.30 C 468.44 425.65 471.39 422.46 474.74 419.95 C 476.83 425.15 479.89 430.21 480.19 435.92 C 477.73 440.10 473.90 443.25 470.83 446.97 C 467.98 449.31 465.37 451.93 463.03 454.78 C 458.09 458.93 453.81 464.03 447.93 466.91 C 439.68 470.92 431.48 475.04 423.30 479.18 C 417.73 478.91 412.02 478.94 406.65 480.64 C 402.33 482.02 398.20 483.94 394.14 485.96 C 394.02 486.01 393.79 486.10 393.67 486.14 C 386.92 486.29 380.88 489.49 374.60 491.55 C 367.55 494.15 359.28 495.54 354.78 502.24 C 351.79 504.07 348.22 505.14 345.75 507.73 C 343.45 511.46 342.37 515.79 340.48 519.74 C 337.04 522.55 333.93 525.81 331.93 529.82 C 328.54 536.01 324.47 541.86 322.05 548.54 C 316.54 554.70 309.62 559.35 303.74 565.13 C 298.74 570.04 292.99 574.08 287.63 578.57 C 280.54 584.23 274.09 590.80 266.16 595.32 L 265.76 594.57 C 268.01 585.11 272.22 575.94 271.94 566.04 C 271.96 559.61 270.71 552.72 273.72 546.73 C 276.18 541.90 279.05 537.29 281.37 532.39 C 285.24 524.32 292.69 519.01 299.13 513.13 C 303.37 509.38 306.81 504.58 311.97 501.99 C 316.73 499.58 321.81 497.91 326.70 495.81 C 336.97 491.70 345.83 484.94 355.24 479.26 C 367.50 471.39 381.11 466.00 393.70 458.71 C 404.08 453.00 415.18 448.63 425.12 442.13 C 430.01 439.06 434.61 435.49 439.76 432.84 C 447.48 428.95 456.46 429.93 464.54 427.30 Z" />
<path fill="#4b2a14" opacity="1.00" d=" M 347.62 588.93 C 350.19 588.28 352.86 588.05 355.48 588.62 C 362.05 589.96 368.69 591.06 375.21 592.71 C 370.18 595.23 364.66 596.90 359.09 597.48 C 354.47 595.99 350.93 592.33 347.62 588.93 Z" />
<path fill="#4b2a14" opacity="1.00" d=" M 255.92 599.23 C 263.10 600.63 270.00 603.15 276.98 605.30 C 288.05 608.91 299.57 610.81 310.90 613.41 C 322.39 616.03 333.45 620.13 344.75 623.42 C 357.51 627.20 371.13 625.54 383.97 628.88 C 392.68 631.63 401.06 635.36 409.68 638.40 C 417.88 641.16 426.67 640.60 435.17 641.46 C 447.08 642.63 459.05 641.84 470.99 642.08 C 473.11 641.99 475.02 642.99 476.65 644.26 C 484.49 650.24 491.08 657.90 499.81 662.68 C 503.22 659.11 506.82 655.69 511.01 653.05 C 514.75 650.73 517.07 646.66 520.96 644.56 C 526.42 646.84 530.66 651.21 535.65 654.30 C 538.31 656.44 542.35 658.07 542.77 661.90 C 543.80 670.32 546.21 678.55 546.57 687.05 C 543.43 685.02 540.85 682.33 538.32 679.62 C 533.74 674.76 527.85 671.48 522.66 667.38 C 520.21 665.60 518.01 663.41 515.20 662.21 C 510.64 665.19 507.52 669.81 503.38 673.28 C 500.81 675.45 497.19 675.20 494.05 675.62 C 485.93 676.10 477.91 677.52 469.96 679.24 C 468.94 683.22 467.96 687.21 467.01 691.20 C 461.25 689.28 455.64 686.78 450.62 683.36 C 448.86 682.43 450.11 680.38 450.29 678.98 C 452.05 672.39 455.61 666.36 456.48 659.53 C 445.03 666.27 439.01 678.71 429.82 687.83 C 427.48 687.86 425.38 686.69 423.30 685.78 C 414.81 681.65 405.51 678.92 398.01 672.98 C 390.94 667.39 382.98 662.92 376.51 656.58 C 373.05 653.20 369.57 649.84 366.04 646.54 C 360.69 647.63 355.26 649.54 349.75 648.41 C 338.96 646.10 327.98 644.74 317.33 641.79 C 316.69 635.35 316.44 628.86 315.50 622.46 C 305.35 624.36 295.73 630.03 285.14 628.67 C 282.16 628.37 279.19 627.95 276.22 627.60 C 274.54 621.53 273.62 615.25 271.53 609.30 C 270.90 607.09 268.55 606.28 266.75 605.27 C 263.00 603.51 259.22 601.75 255.92 599.23 Z" />
<path fill="#4b2a14" opacity="1.00" d=" M 610.30 684.29 C 618.83 679.85 627.63 675.89 635.48 670.24 C 635.43 679.61 638.24 688.79 637.47 698.19 C 634.32 693.69 630.14 689.91 627.69 684.95 C 624.51 690.54 624.12 698.15 617.99 701.70 C 612.58 697.76 609.81 690.90 610.30 684.29 Z" />
</g>
</svg>
